HIERARCHY
ROOT Hips
{
	OFFSET 0.000000 0.000000 0.000000
	CHANNELS 6 Xposition Yposition Zposition Xrotation Yrotation Zrotation
	JOINT LeftUpLeg_virtual
	{
		OFFSET 0.000000 0.000000 0.000000
		CHANNELS 3 Xrotation Yrotation Zrotation
		JOINT LeftUpLeg
		{
			OFFSET 10.205400 -3.823500 0.155100
			CHANNELS 3 Xrotation Yrotation Zrotation
			JOINT LeftLeg
			{
				OFFSET 0.708757 -12.982077 0.567790
				CHANNELS 3 Xrotation Yrotation Zrotation
				JOINT LeftFoot
				{
					OFFSET -0.708756 -10.717838 -2.184338
					CHANNELS 3 Xrotation Yrotation Zrotation
					JOINT LeftToeBase
					{
						OFFSET 0.108149 -7.191104 7.560241
						CHANNELS 3 Xrotation Yrotation Zrotation
						JOINT LeftToe_End
						{
							OFFSET 0.070230 0.081724 4.490308
							CHANNELS 3 Xrotation Yrotation Zrotation
							End Site
							{
								OFFSET 0 0 0
							}
						}
					}
				}
			}
		}
	}
	JOINT RightUpLeg_virtual
	{
		OFFSET 0.000000 0.000000 0.000000
		CHANNELS 3 Xrotation Yrotation Zrotation
		JOINT RightUpLeg
		{
			OFFSET -10.205400 -3.823500 0.005500
			CHANNELS 3 Xrotation Yrotation Zrotation
			JOINT RightLeg
			{
				OFFSET -0.708756 -12.982134 0.610632
				CHANNELS 3 Xrotation Yrotation Zrotation
				JOINT RightFoot
				{
					OFFSET 0.708754 -10.717769 -1.945823
					CHANNELS 3 Xrotation Yrotation Zrotation
					JOINT RightToeBase
					{
						OFFSET -0.108140 -7.191069 7.372968
						CHANNELS 3 Xrotation Yrotation Zrotation
						JOINT RightToe_End
						{
							OFFSET -0.070227 0.081735 4.479403
							CHANNELS 3 Xrotation Yrotation Zrotation
							End Site
							{
								OFFSET 0 0 0
							}
						}
					}
				}
			}
		}
	}
	JOINT Spine_virtual
	{
		OFFSET 0.000000 0.000000 0.000000
		CHANNELS 3 Xrotation Yrotation Zrotation
		JOINT Spine
		{
			OFFSET 0.000000 6.876099 0.125700
			CHANNELS 3 Xrotation Yrotation Zrotation
			JOINT Spine1
			{
				OFFSET 0.000000 5.730043 0.104720
				CHANNELS 3 Xrotation Yrotation Zrotation
				JOINT Spine1_split
				{
					OFFSET 0.000000 5.730043 0.104720
					CHANNELS 3 Xrotation Yrotation Zrotation
					JOINT Spine2
					{
						OFFSET 0.000000 5.730043 0.104720
						CHANNELS 3 Xrotation Yrotation Zrotation
						JOINT Neck_virtual
						{
							OFFSET 0.000000 0.000000 0.000000
							CHANNELS 3 Xrotation Yrotation Zrotation
							JOINT Neck
							{
								OFFSET 0.000000 10.314075 0.188496
								CHANNELS 3 Xrotation Yrotation Zrotation
								JOINT Head
								{
									OFFSET 0.000000 7.643700 -2.377400
									CHANNELS 3 Xrotation Yrotation Zrotation
									JOINT HeadTop_End
									{
										OFFSET 0.000000 43.788605 -13.619600
										CHANNELS 3 Xrotation Yrotation Zrotation
										End Site
										{
											OFFSET 0 0 0
										}
									}
								}
							}
						}
						JOINT LeftShoulder_virtual
						{
							OFFSET 0.000000 0.000000 0.000000
							CHANNELS 3 Xrotation Yrotation Zrotation
							JOINT LeftShoulder
							{
								OFFSET 2.196100 4.412489 0.087492
								CHANNELS 3 Xrotation Yrotation Zrotation
								JOINT LeftShoulder_split
								{
									OFFSET 2.196100 4.412489 0.087492
									CHANNELS 3 Xrotation Yrotation Zrotation
									JOINT LeftArm
									{
										OFFSET 8.771219 -2.981674 -0.026999
										CHANNELS 3 Xrotation Yrotation Zrotation
										JOINT LeftForeArm
										{
											OFFSET 8.512804 0.000000 -0.000000
											CHANNELS 3 Xrotation Yrotation Zrotation
											JOINT LeftHand
											{
												OFFSET 18.484802 0.000000 -0.000000
												CHANNELS 3 Xrotation Yrotation Zrotation
												End Site
												{
													OFFSET 0 0 0
												}
											}
										}
									}
								}
							}
						}
						JOINT RightShoulder_virtual
						{
							OFFSET 0.000000 0.000000 0.000000
							CHANNELS 3 Xrotation Yrotation Zrotation
							JOINT RightShoulder
							{
								OFFSET -2.196100 4.412496 0.070690
								CHANNELS 3 Xrotation Yrotation Zrotation
								JOINT RightShoulder_split
								{
									OFFSET -2.196100 4.412496 0.070690
									CHANNELS 3 Xrotation Yrotation Zrotation
									JOINT RightArm
									{
										OFFSET -8.771282 -2.981682 -0.094208
										CHANNELS 3 Xrotation Yrotation Zrotation
										JOINT RightForeArm
										{
											OFFSET -8.494598 0.000000 0.000000
											CHANNELS 3 Xrotation Yrotation Zrotation
											JOINT RightHand
											{
												OFFSET -18.483803 0.000000 0.000001
												CHANNELS 3 Xrotation Yrotation Zrotation
												End Site
												{
													OFFSET 0 0 0
												}
											}
										}
									}
								}
							}
						}
					}
				}
			}
		}
	}
}
MOTION
Frames: 6
Frame Time: 0.03333333
2.866397 35.104492 -2.328022 0.000000 0.000000 0.000000 -2.513086 6.612441 -1.287633 -9.139910 9.141151 9.595929 21.045662 -3.793362 4.605837 -12.181372 7.693985 -17.636653 2.046345 -3.275623 -1.115116 0.000000 0.000000 0.000000 -2.262233 7.499234 -1.503126 -2.950109 -1.750752 -0.990376 12.273524 4.639449 3.616161 -11.704280 -6.207347 6.078282 2.132155 -0.186279 -8.309921 0.000000 0.000000 0.000000 -3.322767 11.014834 -1.965814 2.269876 -3.543960 2.238565 4.141168 -0.740347 0.378469 0.163108 -0.568473 0.118596 0.000000 0.000000 0.000000 4.037070 0.850718 0.525774 -6.021070 7.506557 6.993351 7.038265 -7.849479 -4.659393 0.000000 0.000000 0.000000 3.565957 -0.597732 0.525600 1.448162 -4.377733 -1.337291 1.694824 -2.899320 -1.009429 0.823330 9.576745 -82.053979 15.491236 -23.512889 8.225319 0.000000 0.000000 0.000000 3.843224 -0.358642 0.931879 1.948646 -0.995958 5.161133 -6.954544 -0.436859 -1.383693 -2.315202 12.781193 75.468522 1.502344 12.831648 -0.181632 0.000000 0.000000 0.000000 
2.809473 35.096096 -2.276670 0.000000 0.000000 0.000000 -2.516884 6.570527 -1.331047 -9.021582 9.120603 9.677599 21.073656 -3.907932 4.620766 -12.176124 7.751132 -17.628372 1.988586 -3.278759 -1.085053 0.000000 0.000000 0.000000 -2.228170 7.280515 -1.544906 -2.882007 -1.719040 -0.903885 12.399433 4.711235 3.541559 -11.843119 -6.015100 5.540435 2.487637 -0.227194 -8.153642 0.000000 0.000000 0.000000 -3.179637 11.036247 -1.880091 2.352320 -3.570949 2.140469 4.058364 -0.768588 0.382074 0.165689 -0.639838 0.097419 0.000000 0.000000 0.000000 4.036337 0.848384 0.526996 -5.951558 7.533824 6.935639 7.311655 -7.829258 -4.712768 0.000000 0.000000 0.000000 3.515431 -0.620461 0.529837 1.481868 -4.434656 -1.432904 1.609695 -2.638680 -1.084097 0.763149 9.471137 -81.977071 15.507907 -23.649774 8.175177 0.000000 0.000000 0.000000 3.797100 -0.367544 0.960051 2.003671 -0.984334 5.193025 -6.951700 -0.253586 -1.350580 -2.087478 12.702756 75.455463 1.458123 12.928372 -0.183563 0.000000 0.000000 0.000000 
2.735422 35.075153 -2.221501 0.000000 0.000000 0.000000 -2.514064 6.285673 -1.353813 -8.676451 9.068819 9.775894 21.018002 -4.050679 4.671518 -12.507802 7.935918 -17.272609 1.778174 -3.300141 -1.039237 0.000000 0.000000 0.000000 -2.156251 6.906632 -1.560602 -3.008398 -1.687336 -0.878770 12.568443 4.864646 3.456669 -11.946553 -5.615586 4.986785 2.514767 -0.255909 -8.116870 0.000000 0.000000 0.000000 -3.033801 10.812118 -1.772907 2.638132 -3.648868 1.951546 3.881868 -0.768789 0.403941 0.159673 -0.693159 0.077998 0.000000 0.000000 0.000000 3.949401 0.865857 0.549471 -5.828532 7.631247 6.858491 7.704434 -7.670174 -4.724627 0.000000 0.000000 0.000000 3.368564 -0.625189 0.551701 1.513556 -4.506585 -1.620307 1.555587 -2.431561 -1.218832 0.717890 9.188799 -81.797881 15.533063 -23.805697 8.038962 0.000000 0.000000 0.000000 3.621815 -0.365536 1.007187 2.062717 -0.860460 5.278152 -6.849267 -0.130947 -1.378207 -1.675592 12.901596 75.322438 1.367011 13.192022 -0.142069 0.000000 0.000000 0.000000 
2.647219 35.040596 -2.154560 0.000000 0.000000 0.000000 -2.474950 5.851686 -1.349162 -8.233634 8.999344 9.930056 20.909979 -4.169687 4.698328 -13.080007 8.309079 -16.651006 2.064008 -3.328943 -1.109316 0.000000 0.000000 0.000000 -2.040392 6.398326 -1.556415 -3.329808 -1.683589 -0.901573 12.810310 5.087113 3.408001 -11.907748 -5.069427 4.574121 2.185883 -0.279274 -8.197707 0.000000 0.000000 0.000000 -2.891301 10.303476 -1.674088 3.090480 -3.762232 1.697300 3.625557 -0.751458 0.446017 0.146802 -0.726769 0.071363 0.000000 0.000000 0.000000 3.790688 0.898516 0.595218 -5.645622 7.792907 6.761179 8.144837 -7.372573 -4.665069 0.000000 0.000000 0.000000 3.154394 -0.614158 0.595772 1.546980 -4.547908 -1.859334 1.493742 -2.293807 -1.355884 0.697347 8.817580 -81.560184 15.590282 -23.979623 7.855786 0.000000 0.000000 0.000000 3.340283 -0.357038 1.072944 2.127539 -0.678278 5.403891 -6.723911 -0.163958 -1.441758 -1.155755 13.341024 75.086223 1.244245 13.631806 -0.067086 0.000000 0.000000 0.000000 
2.538790 35.007805 -2.074265 0.000000 0.000000 0.000000 -2.345849 5.299718 -1.363306 -7.839943 9.015442 10.188770 20.678953 -4.263052 4.595298 -13.599858 8.824475 -16.163979 2.962271 -3.356318 -1.286620 0.000000 0.000000 0.000000 -1.864904 5.728203 -1.541129 -3.813334 -1.679929 -0.945663 13.091980 5.358785 3.433285 -11.707035 -4.413714 4.347540 1.725742 -0.311999 -8.373812 0.000000 0.000000 0.000000 -2.744825 9.510458 -1.616498 3.612937 -3.887114 1.422941 3.315715 -0.734328 0.506962 0.158546 -0.736680 0.075005 0.000000 0.000000 0.000000 3.576136 0.934497 0.656369 -5.407737 8.007996 6.663123 8.617507 -6.918862 -4.513349 0.000000 0.000000 0.000000 2.911202 -0.596909 0.661785 1.574578 -4.507060 -2.119312 1.407018 -2.288418 -1.432768 0.680050 8.481599 -81.313730 15.709358 -24.142236 7.683829 0.000000 0.000000 0.000000 3.008256 -0.350030 1.152918 2.205316 -0.511747 5.549364 -6.580770 -0.287149 -1.586031 -0.604233 13.981404 74.755314 1.114666 14.205217 0.014940 0.000000 0.000000 0.000000 
2.398527 34.980591 -1.987717 0.000000 0.000000 0.000000 -2.101763 4.593314 -1.424124 -7.473640 9.149978 10.536524 20.233256 -4.337080 4.337636 -13.871718 9.481928 -16.025225 3.927318 -3.402254 -1.376019 0.000000 0.000000 0.000000 -1.634260 4.942111 -1.563615 -4.382868 -1.614359 -0.918484 13.359268 5.627086 3.540476 -11.544563 -3.693925 4.158525 1.474641 -0.366957 -8.587284 0.000000 0.000000 0.000000 -2.556166 8.481685 -1.621867 4.089881 -3.991049 1.181331 2.982809 -0.737006 0.577678 0.189997 -0.745526 0.094691 0.000000 0.000000 0.000000 3.330224 0.955921 0.720708 -5.141292 8.254947 6.594897 9.119784 -6.305536 -4.280120 0.000000 0.000000 0.000000 2.661200 -0.589953 0.737261 1.588217 -4.369209 -2.360116 1.379772 -2.355076 -1.427702 0.633923 8.275948 -81.116003 15.903184 -24.204756 7.548562 0.000000 0.000000 0.000000 2.674523 -0.356255 1.233404 2.299544 -0.413041 5.710294 -6.495369 -0.477862 -1.730535 -0.083609 14.747951 74.340462 1.019338 14.831812 0.066878 0.000000 0.000000 0.000000 
